# xmcd
#
# Track frame offsets: 
#        150
#        21487
#        39491
#        62778
#        81995
#        102235
#        126519
#        145806
#        162718
#        184835
#        203527
#        222349
#
# Disc length: 3218 seconds
#
# Revision: 4
# Processed by: cddbd v1.5.2PL0 Copyright (c) Steve Scherf et al.
# Submitted via: ExactAudioCopy v0.99pb4
#
DISCID=b60c900c
DTITLE=Mayall, John - Wake Up Call
DYEAR=1993
DGENRE=Blues
TTITLE0=Mail order mystics
TTITLE1=Maydell
TTITLE2=I could cry
TTITLE3=Wake up call
TTITLE4=Loaded dice
TTITLE5=Undercover agent for the blues
TTITLE6=Light the fuse
TTITLE7=Anything I can say
TTITLE8=Nature's disappearing
TTITLE9=I'm a sucker for love
TTITLE10=Not at home
TTITLE11=Ain't that lovin' you baby
EXTD=
EXTT0=
EXTT1=
EXTT2=
EXTT3=
EXTT4=
EXTT5=
EXTT6=
EXTT7=
EXTT8=
EXTT9=
EXTT10=
EXTT11=
PLAYORDER=
